<?xml version="1.0" encoding="UTF-8"?>
<svg version="1.1" viewBox="0 0 1600 1600" width="1280" height="1280" xmlns="http://www.w3.org/2000/svg">
<path transform="translate(915,287)" d="m0 0h80l12 2 5 4 9 13 7 15 12 28 14 31 22 54 14 34 13 30 5 9 5 4h195l14 2 10 4 8 9 2 7v16l-3 10-6 9-6 4-7 2-106 2h-55l-25-1v2h2l10 22 15 37 11 26 10 24 8 19 6 10 5 1 19-9 3-1h13l5 2 6 2h9l11-5 8-7 12-5 20-1h23l10 3 20 12 3 2h17l9-3h7l15 5 26 12 10 9 7 9 7 10 14 10 12 1 12 7 7 7 9 11 11 14 6 10v6l-2 9 5 12 6 7 11 8 6 7 5 10 5 19 6 24v6l-5 5-4 7-1 10 2 11 5 5 9 7 1 2v9l-2 6-2 10-4 12-1 13-7 16-7 5-4 6-3 5-2 13 3 14-1 5-7 12-7 10-6 10-9 12-9 8-2 1-16 1-4 3h-2l-2 18-3 5-17 17-10 6-11 7-8 6-5 3h-7l-8-3h-12l-12 5-7 10-11 7-13 4-14 2-17 4-5-1-6 2-5-1-8-10-1-3-8-2h-10l-11 2-6 9-3 1-5 1-1-3-4 1-8-5-11-2-19-6-11-3-10-9-1-1-1-12-5-2-6-1h-5l-3-3-1-3-3-1-2 5-4 2-10-4-10-7-13-11-5-5-11-9-6-11-3-14-7-14-10-7-6-1-10-8-7-14-12-27-2-6 1-8 4-16-1-11-6-8-3-7-1-3-4-2-3-6-1-8v-16l1-24 6-12 6-7 5-12 1-4v-7l-4-13v-10l4-10 5-8 6-16 5-8 7-7 17-10 4-2 2-4 5-11 2-5 4-17 5-5 12-9 1-4-1-9-12-31-13-30-13-31-17-40-6-13-8-16-4-1-2 5-8 12-8 10-12 14-14 15-16 15-17 14-16 12-13 8-16 8-13 4-6 1h-38l-30-5-16-5-25-10-15-8-15-10-14-9-11-4-43 4-10 2-4 6-6 11-10 17-6 11-15 26-18 30-10 17-7 11-4 8 52 13 55 14 21 6 8 2h4l1-5 1-84 2-5 7 1 17 8 27 9 28 6 26 4 32 3 19 1 3 4v116l-1 21-3 15-5 13-8 14-9 11-5 5-9 8-16 8-15 5-18 3-15 1h-16l-17-3-20-7-35-14-52-21-28-11-13-4-9-2-18 2-16 4-10 1-7 2-12 2-12 4-8 15-7 16-2 8v10l5 12 3 5v7l-9 28-5 13-5 9-9 8-6 3-12 13v3h-2l6 9v7l-6 7-10 14-7 9h-2l-2 4-8 8-11 8-6 4-9-1-15 4-4 1-1 10-8 13-4 4-19 8-13 6-16 5-10 2-9-4-6-5h-3v-2l-5 2-3 1v2l-6 4-5 5-6 5-10 3h-41l-5-2h-9l-5-3v-2h-2l-7-8-9-8-9-1-8 7-5 5-6-1-7-5-6-2-30-15-14-12-4-10-2-2-7-3-1-5 1-3-2-4-5-2-4 1-6 5-15-9-10-13-7-9-6-8-6-9-4-10-1-10v-14l-4-5-9-6-4-2 1 1v3h-2l-3-7-6-8-7-29-6-18-1-10 9-6 2-4v-12l-3-11-4-6-4-18 2-17 3-20 4-9 6-10 11-9 6-12 1-3v-7l-4-6v-7l4-8 6-8 8-15 4-5 9-11 5-6 20-4 5-4 9-17 8-12 9-10 18-11 12-6 6-2 13-1 6 1h9l14-4 5-9 9-6 5-2 35-5h13l10 4 11 6 4 2 9 1 7 1 10-8 2-1h9l30 9 14 5 9 6 9 13 15 12 17-1 12 6 14 11 7 7 5 4 11 15 6 17 3 9 6 11 2 2 5 1h7l17-10 3-1v-2l5-5 6-9 8-14 6-10 9-16 9-15 12-19 6-12 9-15 9-16 7-17-9 2-22 3-28 2h-25l-12-3-16-7-18-6-39-14-89-33-16-7-10-10-10-17-9-14-7-13v-2l-122-1-14-2-7-5-7-10-2-5v-15l4-11 6-8 7-5 4-1 80-2 309-1h99l50-1 12-2 10-5 22-13 17-11 27-16 19-12 21-12 29-13 19-5 15-3 33-3 30-2 8-1-2-10-6-12-3-3-4-1-22-1-57-1-9-3-8-8-5-8-2-7v-9l4-13 7-8 5-4 4-2zm384 481-20 2-21 5-25 8-6 3-1 2 8 20 16 36 10 23 8 19 7 10 3 3h2v2l6-1 15-3h19l11 2 16 8 10 8 10 13 5 11 2 7v25l-4 13-7 11-10 12-14 9-11 4-10 2h-16l-12-3-16-8-6-5h-2v-2h-2l-2-4-7-11-5-12-5-15-5-9-10-11-12-17-18-36-10-23-4-8-8-24-3-2-5 1-12 13-9 12-9 17-6 13-7 21-4 18-3 24v19l4 28 7 25 6 16 9 17 11 17 13 16 6 7 8 7 10 8 17 11 16 9 19 8 19 6 17 3 18 2h24l27-4 20-5 20-8 16-8 16-10 15-13 12-11 2-4h2l9-11 9-12 7-12 8-15 8-25 5-24 2-24v-10l-2-21-4-22-6-20-9-21-11-18-10-13-11-13-11-11-20-15-17-10-19-9-16-5-22-5-14-2-13-1zm-1033 1-20 3-21 6-20 8-22 12-13 10-11 9-1 3-4 2-8 8v2h-2l-10 13-10 14-6 11-7 16-8 26-3 11-3 22v31l3 21 6 24 6 16 12 23 9 13 14 17 10 10 11 9 13 9 18 11 17 8 18 6 16 4 26 3h23l27-4 21-5 21-8 15-8 16-10 14-12 12-11 10-10 7-9v-2h2l6-9 8-15 6-12 8-26 4-17 3-22v-10l-5-3-20 3-51 10-44 8-12 3-9 17-9 10-15 9-16 4-5 1h-15l-12-3-14-7-10-8-7-8-6-10-4-12-1-5v-17l2-10 4-10 10-13 6-7 19-13 9-2h16l12 1 19 7 4 2h6l15-6 36-16 19-9 23-10 20-8 2-2-1-5-11-14-18-20-14-11-13-9-22-12-13-6-18-5-20-4-8-1z"/>
<path transform="translate(620,664)" d="m0 0"/>
</svg>
